<?xml version="1.0" standalone="no"?>
<!DOCTYPE svg PUBLIC "-//W3C//DTD SVG 20010904//EN"
 "http://www.w3.org/TR/2001/REC-SVG-20010904/DTD/svg10.dtd">
<svg version="1.0" xmlns="http://www.w3.org/2000/svg"
 width="1024.000000pt" height="1024.000000pt" viewBox="0 0 1024.000000 1024.000000"
 preserveAspectRatio="xMidYMid meet">

<g transform="translate(0.000000,1024.000000) scale(0.100000,-0.100000)"
fill="#000000" stroke="none">
<path d="M3732 8456 l-37 -34 -7 -319 c-3 -175 -12 -561 -20 -858 -18 -726
-17 -810 11 -908 44 -161 102 -253 281 -449 172 -188 190 -244 197 -623 4
-217 2 -297 -16 -480 -11 -121 -32 -341 -46 -490 -40 -434 -70 -714 -104 -970
-11 -82 -25 -222 -31 -310 -6 -88 -21 -272 -34 -410 -41 -440 -34 -534 44
-667 47 -78 109 -134 204 -184 126 -67 252 -55 387 37 74 50 129 122 169 222
44 109 49 208 22 392 -12 77 -24 172 -27 210 -4 39 -20 192 -36 340 -40 374
-56 527 -80 770 -26 272 -84 798 -104 945 -33 245 -40 778 -11 890 41 162 75
218 230 382 67 70 130 148 160 197 58 96 116 245 123 315 10 101 -14 335 -46
459 -28 105 -31 134 -31 260 0 176 14 347 41 497 19 104 20 128 10 250 -6 75
-11 217 -11 316 0 196 -3 210 -60 239 -57 30 -145 11 -171 -36 -8 -16 -13
-277 -17 -916 -6 -1009 0 -937 -85 -982 -40 -20 -50 -21 -80 -12 -37 13 -81
54 -91 87 -5 18 -21 1604 -17 1729 1 28 -4 61 -9 75 -39 90 -195 89 -227 -1
-8 -25 -12 -244 -14 -814 -1 -429 -1 -810 0 -848 3 -99 -14 -171 -49 -200 -66
-56 -155 -38 -194 38 -21 39 -21 58 -28 925 -5 487 -10 895 -13 908 -7 31 -62
62 -108 62 -29 0 -46 -8 -75 -34z"/>
<path d="M5712 8469 c-237 -46 -453 -359 -541 -784 -12 -55 -29 -183 -38 -285
-18 -204 -12 -320 29 -510 43 -201 154 -376 330 -516 110 -89 126 -155 157
-654 11 -179 22 -362 23 -407 2 -45 6 -84 8 -87 3 -3 60 -8 127 -12 l120 -7 7
164 c4 90 9 175 11 189 2 14 6 88 10 165 7 157 39 449 56 510 17 62 52 114
128 189 125 123 214 253 267 388 56 145 67 210 67 428 1 206 -17 349 -64 520
-81 288 -276 576 -455 669 -22 12 -72 28 -110 36 -77 16 -72 16 -132 4z"/>
<path d="M2838 5794 c-80 -43 -73 -175 11 -219 45 -23 547 -22 597 1 94 45 98
156 8 215 -27 17 -51 19 -309 19 -228 -1 -285 -4 -307 -16z"/>
<path d="M6905 5289 c-176 -4 -373 -9 -438 -11 l-119 -3 -29 -32 c-52 -59 -51
-110 4 -170 l33 -35 499 11 c555 13 539 11 576 83 25 48 24 79 -2 112 -33 41
-71 56 -141 54 -35 0 -207 -5 -383 -9z"/>
<path d="M2852 5282 c-13 -2 -38 -19 -57 -38 -27 -26 -35 -43 -35 -70 0 -40
18 -80 50 -109 21 -19 39 -20 494 -23 438 -3 473 -2 506 15 50 26 69 86 44
139 -21 43 -63 71 -119 79 -44 6 -846 12 -883 7z"/>
<path d="M4830 5273 c-28 -10 -70 -56 -81 -90 -9 -28 -7 -40 10 -76 11 -23 29
-47 40 -54 21 -13 542 -20 573 -8 22 9 44 43 52 82 9 41 -24 107 -67 133 -30
18 -51 20 -272 19 -132 0 -247 -3 -255 -6z"/>
<path d="M5681 4973 c-6 -26 -18 -95 -26 -153 -35 -239 -73 -318 -206 -433
-272 -235 -336 -403 -324 -845 2 -98 7 -514 10 -927 4 -501 10 -763 17 -788
13 -45 78 -107 112 -107 29 0 72 33 90 68 22 44 26 157 27 852 1 366 5 729 8
807 8 164 15 182 95 222 63 31 106 22 150 -32 l31 -39 5 -896 5 -897 22 -31
c24 -33 77 -64 112 -64 26 0 85 52 100 87 7 19 13 307 19 899 9 824 10 874 28
910 26 52 75 84 131 84 38 0 51 -6 78 -33 18 -18 38 -51 44 -73 7 -25 10 -333
11 -897 0 -945 -2 -908 62 -947 44 -27 74 -25 115 6 63 48 63 50 63 406 0 178
5 633 10 1012 8 590 8 698 -5 758 -32 153 -100 256 -305 458 -128 125 -150
153 -168 201 -31 84 -53 202 -59 316 l-6 101 -86 5 c-47 3 -100 9 -117 12 -31
7 -32 6 -43 -42z"/>
<path d="M6678 4782 c-53 -32 -72 -105 -43 -167 28 -58 36 -59 369 -58 263 0
306 3 328 17 32 21 48 57 48 106 0 32 -7 47 -38 80 l-39 40 -299 0 c-264 -1
-302 -3 -326 -18z"/>
</g>
</svg>
